<svg width="20" height="20" viewBox="0 0 20 20" fill="none" xmlns="http://www.w3.org/2000/svg">
    <path d="M14.5 10.225v4.05C14.5 17.65 13.15 19 9.775 19h-4.05C2.35 19 1 17.65 1 14.275v-4.05C1 6.85 2.35 5.5 5.725 5.5h4.05c3.375 0 4.725 1.35 4.725 4.725z" stroke="#fff" stroke-width="1.5" stroke-linecap="round" stroke-linejoin="round"/>
    <path d="M19 5.95a4.937 4.937 0 0 1-4.5 4.923v-.648C14.5 6.85 13.15 5.5 9.775 5.5h-.648A4.937 4.937 0 0 1 14.05 1a4.93 4.93 0 0 1 4.896 4.293c.036.207.054.432.054.657v0z" stroke="#fff" stroke-width="1.5" stroke-linecap="round" stroke-linejoin="round"/>
</svg>
