<svg width="11" height="11" viewBox="0 0 11 11" fill="none" xmlns="http://www.w3.org/2000/svg">
    <path d="M5.953 8.581c-.302 0-.547.264-.547.59 0 .326.245.59.547.59h4.188c.302 0 .546-.264.546-.59 0-.326-.244-.59-.546-.59H5.953zM.125 3.271c0 .326.245.59.546.59h1.457v1.574c0 .325.245.59.547.59.301 0 .546-.264.546-.59V3.86h1.64c.3 0 .545-.264.545-.59 0-.325-.244-.59-.546-.59H3.22V.715c.001-.326-.244-.59-.545-.59-.302 0-.547.264-.547.59V2.68H.671c-.301 0-.546.265-.546.59zM9.95 1.097a.518.518 0 0 0-.773 0L1.228 9.68a.624.624 0 0 0 0 .834.524.524 0 0 0 .387.173c.14 0 .28-.057.386-.173L9.95 1.931a.624.624 0 0 0 0-.834z" fill="#fff"/>
</svg>
