<svg width="18" height="18" viewBox="0 0 18 18" fill="none" xmlns="http://www.w3.org/2000/svg">
    <path d="M13.905 7.41 12.84 6.352l-1.59 1.59-1.59-1.59L8.602 7.41 10.192 9l-1.59 1.59 1.058 1.065 1.59-1.598 1.59 1.598 1.065-1.065L12.307 9M1.5 9c0-2.093 1.23-3.9 3-4.74V2.625C1.875 3.57 0 6.067 0 9c0 2.932 1.875 5.43 4.5 6.375V13.74c-1.77-.84-3-2.648-3-4.74zm9.75-6.75C7.53 2.25 4.5 5.28 4.5 9s3.03 6.75 6.75 6.75S18 12.72 18 9s-3.03-6.75-6.75-6.75zm0 12A5.256 5.256 0 0 1 6 9a5.256 5.256 0 0 1 5.25-5.25A5.256 5.256 0 0 1 16.5 9a5.256 5.256 0 0 1-5.25 5.25z" fill="#989898"/>
</svg>
