<svg width="20" height="20" viewBox="0 0 20 20" fill="none" xmlns="http://www.w3.org/2000/svg">
    <path d="M11.8 13.6a5.352 5.352 0 0 1-1.8 4.014A5.337 5.337 0 0 1 6.4 19 5.404 5.404 0 0 1 1 13.6a5.413 5.413 0 0 1 3.978-5.21 5.417 5.417 0 0 0 3.6 3.221c.45.126.927.19 1.422.19.495 0 .972-.064 1.422-.19.243.612.378 1.287.378 1.99z" stroke="#989898" stroke-width="1.5" stroke-linecap="round" stroke-linejoin="round"/>
    <path d="M15.4 6.4a5.394 5.394 0 0 1-5.4 5.4 5.394 5.394 0 0 1-5.4-5.4C4.6 3.421 7.02 1 10 1c2.979 0 5.4 2.421 5.4 5.4z" stroke="#989898" stroke-width="1.5" stroke-linecap="round" stroke-linejoin="round"/>
    <path d="M19 13.6c0 2.98-2.421 5.4-5.4 5.4a5.338 5.338 0 0 1-3.6-1.386 5.352 5.352 0 0 0 1.8-4.014c0-.702-.135-1.377-.378-1.989a5.417 5.417 0 0 0 3.6-3.222A5.413 5.413 0 0 1 19 13.6z" stroke="#989898" stroke-width="1.5" stroke-linecap="round" stroke-linejoin="round"/>
</svg>
