<svg width="21" height="17" viewBox="0 0 21 17" fill="none" xmlns="http://www.w3.org/2000/svg">
    <path d="M4.2.531C4.2.238 4.435 0 4.725 0c.29 0 .525.238.525.531v2.125c0 1.467-1.175 2.656-2.625 2.656h-2.1A.528.528 0 0 1 0 4.782c0-.294.235-.532.525-.532h2.1c.87 0 1.575-.714 1.575-1.594V.531zM.525 12.75A.528.528 0 0 1 0 12.219c0-.294.235-.531.525-.531h2.1c1.45 0 2.625 1.189 2.625 2.656v2.125a.528.528 0 0 1-.525.531.528.528 0 0 1-.525-.531v-2.125c0-.88-.705-1.594-1.575-1.594h-2.1zm19.95-8.5c.29 0 .525.238.525.531a.528.528 0 0 1-.525.532h-2.1c-1.45 0-2.625-1.19-2.625-2.657V.531c0-.293.235-.531.525-.531.29 0 .525.238.525.531v2.125c0 .88.705 1.594 1.575 1.594h2.1zM16.8 16.469a.528.528 0 0 1-.525.531.528.528 0 0 1-.525-.531v-2.125c0-1.467 1.175-2.656 2.625-2.656h2.1c.29 0 .525.237.525.53a.528.528 0 0 1-.525.532h-2.1c-.87 0-1.575.713-1.575 1.594v2.125z" fill="#fff"/>
</svg>
