<svg width="103" height="30" viewBox="0 0 103 30" fill="none" xmlns="http://www.w3.org/2000/svg">
    <path d="M36.178 21.997h3.458V5.593h-3.458v16.404zM42.725 21.997h3.203v-7.336c.484-.68 1.337-1.406 2.467-1.406 1.22 0 2.143.704 2.143 2.204v6.538h3.204v-6.96c0-2.602-1.59-4.616-4.494-4.616-1.592 0-2.836.749-3.69 1.757v-1.43h-2.833v11.249zM61.739 22.325c1.407 0 2.651-.281 3.735-.75v-2.882c-.807.492-1.96.796-3.113.796-1.728 0-3.388-.96-3.388-3.116 0-2.273 1.706-3.14 3.434-3.14 1.062 0 2.168.328 2.95.843v-2.86c-.99-.538-2.19-.82-3.41-.82-3.066 0-6.246 1.829-6.246 6.14 0 4.008 3.019 5.79 6.038 5.79zM73.424 22.325c1.66 0 3.021-.259 4.057-.703v-2.555a8.56 8.56 0 0 1-3.342.657c-1.82 0-3.527-.657-3.896-2.296h7.792c.738-3.328-.737-7.007-5.325-7.007-2.489 0-5.692 1.71-5.692 5.952 0 3.914 2.904 5.952 6.406 5.952zm-3.203-7.007c.046-1.546 1.244-2.414 2.605-2.414 1.981 0 2.419 1.64 2.282 2.414h-4.887zM80.27 27.153h3.204v-6.327c.714.773 1.89 1.5 3.64 1.5 3.505 0 5.396-2.884 5.396-5.953 0-3.07-1.89-5.952-5.395-5.952-2.027 0-3.296.961-4.01 1.967v-1.64H80.27v16.405zm6.062-7.57c-1.383 0-2.42-.914-2.858-1.875v-2.671c.438-.961 1.475-1.876 2.858-1.876 1.845 0 2.904 1.453 2.904 3.212 0 1.757-1.06 3.21-2.904 3.21zM99.447 22.325a8.91 8.91 0 0 0 2.972-.491v-2.626a5.626 5.626 0 0 1-2.005.352c-1.198 0-1.752-.493-1.752-1.665V13.49h3.482v-2.742h-3.482V6.695l-3.204.773v3.28h-1.866v2.742h1.866v5.038c0 2.79 1.845 3.797 3.989 3.797zM15.23.255C7.068.255.45 6.87.45 15.034c0 8.161 6.617 14.778 14.779 14.778 8.163 0 14.78-6.617 14.78-14.778 0-8.163-6.617-14.78-14.78-14.78z" fill="#fff"/>
    <path d="M23.344 7.46c-.86-.86-3.166.47-4.974 1.759a6.786 6.786 0 0 0-2.942-.674 6.86 6.86 0 0 0-6.851 6.852c0 1.054.244 2.05.673 2.942-1.298 1.82-2.62 4.118-1.762 4.977.194.194.462.292.804.292.713 0 1.742-.423 3.075-1.267.364-.23.744-.49 1.13-.77.89.427 1.88.677 2.931.677a6.86 6.86 0 0 0 6.851-6.851c0-1.052-.25-2.042-.676-2.93.277-.388.54-.767.768-1.129 1.247-1.973 1.574-3.278.973-3.879zm-2.101 4.332a31.571 31.571 0 0 1-1.327 1.747l-.021.026c-.147.179-.299.361-.454.545l-.145.17a34.484 34.484 0 0 1-.668.761c-.116.13-.232.26-.353.39-.131.142-.266.285-.4.428-.09.093-.175.187-.266.28a45.236 45.236 0 0 1-1.438 1.439c-.097.093-.193.18-.29.273l-.42.393c-.13.12-.26.236-.39.352-.098.088-.194.177-.294.262a35.815 35.815 0 0 1-1.172.996l-.06.048c-.598.487-1.169.92-1.702 1.294-.288.2-.571.393-.844.565-1.982 1.255-2.836 1.264-3.03 1.07-.246-.246.023-1.472 1.65-3.819.43.684.972 1.291 1.606 1.785 1.37-.94 3.143-2.37 5.187-4.414 2.045-2.045 3.474-3.818 4.414-5.19A6.955 6.955 0 0 0 19.04 9.59c2.349-1.625 3.574-1.889 3.818-1.645.192.193.185 1.047-1.068 3.028-.166.265-.351.541-.547.82z" fill="#000"/>
</svg>
