<svg width="16" height="20" viewBox="0 0 16 20" fill="none" xmlns="http://www.w3.org/2000/svg">
    <path d="M7.173 14.992c.762 0 1.471-.228 2.066-.617l1.891 1.936.894-.874-1.865-1.91a3.767 3.767 0 0 0 .804-2.325c0-2.09-1.7-3.79-3.79-3.79s-3.79 1.7-3.79 3.79 1.7 3.79 3.79 3.79zm0-6.33c1.4 0 2.54 1.14 2.54 2.54 0 1.4-1.14 2.54-2.54 2.54-1.4 0-2.54-1.14-2.54-2.54 0-1.4 1.14-2.54 2.54-2.54z" fill="#8C73AC"/>
    <path d="M15.506 4.008h-.852c-.224-.289-.75-1.21.033-2.758h.489V0H2.624A2.63 2.63 0 0 0 0 2.63V16.62c0 1.184.327 2.086.97 2.681a2.68 2.68 0 0 0 1.87.695h12.666V4.007zM2.624 1.25h10.698c-.062.162-.113.32-.155.472H6.27v1.25h6.755c.022.4.106.749.219 1.036H2.623a1.378 1.378 0 0 1 0-2.758zm11.632 17.497-11.465.002c-.006-.002-.552.024-.972-.364-.378-.35-.57-.943-.57-1.764V4.868c.4.247.872.39 1.375.39h11.632v13.489z" fill="#8C73AC"/>
</svg>
