<svg width="188" height="38" viewBox="0 0 188 38" fill="none" xmlns="http://www.w3.org/2000/svg">
    <path d="M13.601 0C6.091 0 0 6.12 0 13.667c0 7.546 6.09 13.666 13.601 13.666 7.51 0 13.6-6.12 13.6-13.666C27.202 6.12 21.112 0 13.602 0z" fill="#fff"/>
    <path d="M20.381 6.753c-.756-.76-2.786.42-4.378 1.554a5.925 5.925 0 0 0-2.588-.594c-3.33 0-6.03 2.72-6.03 6.06 0 .934.218 1.814.596 2.607-1.14 1.607-2.308 3.64-1.552 4.4.172.173.405.26.71.26.623 0 1.532-.373 2.707-1.12.318-.2.657-.433.995-.68.783.38 1.652.6 2.58.6 3.325 0 6.032-2.72 6.032-6.06 0-.933-.22-1.807-.597-2.593.245-.34.47-.68.676-.994 1.095-1.746 1.387-2.9.856-3.433l-.007-.007zm-1.85 3.827a23.787 23.787 0 0 1-1.168 1.547l-.02.02c-.126.16-.265.32-.398.48-.04.053-.086.1-.126.146-.12.14-.232.28-.358.42-.073.087-.153.174-.226.254-.106.113-.206.226-.312.346-.113.127-.232.254-.352.38-.08.08-.152.16-.232.247-.205.213-.418.433-.63.647-.212.213-.425.426-.637.626-.086.087-.172.16-.259.24a9.16 9.16 0 0 1-.371.347 7.651 7.651 0 0 1-.345.313c-.086.08-.173.154-.259.234-.133.12-.272.24-.405.353-.053.047-.113.093-.166.14a20.28 20.28 0 0 1-.457.387.363.363 0 0 0-.053.04c-.525.433-1.029.813-1.5 1.14-.252.18-.504.353-.736.506-1.752 1.107-2.502 1.114-2.667.947-.22-.22.02-1.3 1.453-3.38.378.607.855 1.14 1.413 1.58 1.207-.827 2.766-2.1 4.571-3.907 1.805-1.806 3.052-3.373 3.881-4.593A6.159 6.159 0 0 0 16.6 8.62c2.07-1.44 3.145-1.673 3.364-1.46.172.173.159.927-.943 2.68-.146.233-.311.473-.484.72l-.006.02z" fill="#000"/>
    <path d="M33.067 19.54h3.29V4.087h-3.29V19.54zM39.303 19.54h3.052v-6.907c.458-.64 1.274-1.32 2.349-1.32 1.168 0 2.044.66 2.044 2.074v6.153h3.051v-6.553c0-2.447-1.512-4.347-4.279-4.347-1.52 0-2.7.707-3.516 1.653V8.947h-2.7V19.54zM57.43 19.853c1.34 0 2.527-.266 3.555-.706v-2.714c-.77.46-1.87.754-2.965.754-1.646 0-3.225-.907-3.225-2.94 0-2.14 1.626-2.954 3.271-2.954 1.015 0 2.063.307 2.813.794V9.393c-.948-.506-2.09-.773-3.25-.773-2.92 0-5.952 1.72-5.952 5.78 0 3.773 2.88 5.453 5.759 5.453h-.007zM68.562 19.853c1.58 0 2.873-.24 3.862-.66v-2.406a8.293 8.293 0 0 1-3.185.62c-1.738 0-3.364-.62-3.716-2.16h7.425c.703-3.134-.704-6.6-5.076-6.6-2.368 0-5.427 1.613-5.427 5.606 0 3.687 2.767 5.607 6.11 5.607l.007-.007zm-3.052-6.6c.047-1.453 1.188-2.273 2.481-2.273 1.891 0 2.31 1.547 2.177 2.273H65.51zM75.084 24.393h3.052v-5.96c.683.727 1.798 1.414 3.47 1.414 3.337 0 5.135-2.714 5.135-5.607 0-2.893-1.798-5.607-5.135-5.607-1.93 0-3.138.9-3.822 1.854V8.94h-2.7v15.453zm5.779-7.126c-1.32 0-2.31-.86-2.72-1.767v-2.52c.418-.907 1.4-1.767 2.72-1.767 1.758 0 2.766 1.367 2.766 3.02 0 1.654-1.015 3.027-2.766 3.027v.007zM93.362 19.853c1.055 0 2.017-.18 2.833-.46V16.92a5.455 5.455 0 0 1-1.91.327c-1.142 0-1.672-.467-1.672-1.567v-4.147h3.317V8.947h-3.317v-3.82l-3.052.726v3.094h-1.778v2.586h1.778v4.74c0 2.627 1.758 3.574 3.801 3.574v.006z" fill="#fff"/>
    <path d="M103.493 19.947h9.992v-1.7h-8.214V5.053h-1.778v14.894zm12.765-12.38c.591 0 1.102-.36 1.102-1.087s-.511-1.087-1.102-1.087c-.59 0-1.101.38-1.101 1.087s.504 1.087 1.101 1.087zm-.849 12.38h1.699V9.733h-1.699v10.214zm13.19 4.68h1.698V9.733h-1.526v1.707c-.909-1.04-2.156-1.96-4.107-1.96-2.899 0-5.082 2.293-5.082 5.36s2.183 5.36 5.082 5.36c1.951 0 3.198-.913 3.935-1.787v6.214zm-3.749-6c-1.97 0-3.576-1.447-3.576-3.787s1.612-3.793 3.576-3.793c1.825 0 3.178 1.193 3.749 2.513v2.553c-.571 1.32-1.924 2.514-3.749 2.514zm12.686 1.573c1.632 0 2.985-.867 3.662-1.76v1.507h1.526V9.733h-1.699v6.847c-.676 1.02-1.798 2.047-3.297 2.047-1.778 0-2.727-.894-2.727-2.807V9.733h-1.698v6.294c0 2.486 1.585 4.166 4.233 4.166v.007zm9.208-12.633c.591 0 1.102-.36 1.102-1.087s-.511-1.087-1.102-1.087c-.59 0-1.101.38-1.101 1.087s.504 1.087 1.101 1.087zm-.849 12.38h1.699V9.733h-1.699v10.214zm9.249.253c1.95 0 3.198-.913 4.107-1.953v1.7h1.526V5.053h-1.699v6.214c-.743-.874-1.99-1.787-3.934-1.787-2.899 0-5.082 2.293-5.082 5.36s2.183 5.36 5.082 5.36zm.192-1.573c-1.97 0-3.576-1.447-3.576-3.787s1.612-3.793 3.576-3.793c1.825 0 3.178 1.193 3.749 2.513v2.553c-.571 1.32-1.924 2.514-3.749 2.514zm9.468-11.06c.59 0 1.101-.36 1.101-1.087s-.511-1.087-1.101-1.087c-.591 0-1.102.38-1.102 1.087s.505 1.087 1.102 1.087zm-.849 12.38h1.698V9.733h-1.698v10.214zm8.91.233c.975 0 1.97-.193 2.733-.467V18.14c-.676.273-1.439.467-2.249.467-1.479 0-2.183-.467-2.183-2.027v-5.273h4.067V9.733h-4.067V6.14l-1.671.427V9.74h-1.905v1.573h1.905v5.574c0 2.233 1.393 3.293 3.363 3.293h.007zm5.314 4.707c1.48 0 2.773-.94 3.828-3.407l4.996-11.747h-1.798l-3.43 8.274-3.835-8.274h-1.798l4.83 10.234-.378.933c-.657 1.66-1.479 2.487-2.627 2.487-.292 0-.591-.04-.889-.127v1.467c.385.106.743.146 1.101.146v.014z" fill="url(#6ww8kxevfa)"/>
    <path d="M164.635 37.533v-7h3.14c.807 0 1.427.164 1.86.49.433.32.65.76.65 1.32 0 .38-.087.7-.26.96a1.65 1.65 0 0 1-.68.6c-.287.14-.597.21-.93.21l.18-.3c.4 0 .753.07 1.06.21.307.14.55.347.73.62.18.267.27.6.27 1 0 .6-.227 1.067-.68 1.4-.447.327-1.113.49-2 .49h-3.34zm1-.81h2.3c.553 0 .977-.093 1.27-.28.293-.186.44-.48.44-.88 0-.406-.147-.703-.44-.89-.293-.186-.717-.28-1.27-.28h-2.39v-.81h2.14c.507 0 .9-.093 1.18-.28.28-.186.42-.466.42-.84 0-.373-.14-.653-.42-.84-.28-.186-.673-.28-1.18-.28h-2.05v5.38z" fill="url(#u0p3gdbcub)"/>
    <path d="M174.423 37.593c-.566 0-1.066-.116-1.5-.35a2.57 2.57 0 0 1-1-.96 2.766 2.766 0 0 1-.35-1.4c0-.526.114-.993.34-1.4.234-.406.55-.723.95-.95.407-.233.864-.35 1.37-.35.514 0 .967.114 1.36.34.394.227.7.547.92.96.227.407.34.884.34 1.43 0 .04-.003.087-.01.14 0 .054-.003.104-.01.15h-4.51v-.69h4.01l-.39.24a1.775 1.775 0 0 0-.21-.91 1.556 1.556 0 0 0-.61-.62 1.685 1.685 0 0 0-.89-.23c-.333 0-.63.077-.89.23-.26.147-.463.357-.61.63-.146.267-.22.574-.22.92v.16c0 .354.08.67.24.95.167.274.397.487.69.64.294.154.63.23 1.01.23.314 0 .597-.053.85-.16.26-.106.487-.266.68-.48l.53.62c-.24.28-.54.494-.9.64-.353.147-.75.22-1.19.22z" fill="url(#0v72z7me5c)"/>
    <path d="M180.006 37.593c-.533 0-.946-.143-1.24-.43-.293-.286-.44-.696-.44-1.23v-4.86h.96v4.82c0 .287.07.507.21.66.147.154.354.23.62.23.3 0 .55-.083.75-.25l.3.69c-.146.127-.323.22-.53.28-.2.06-.41.09-.63.09zm-2.58-4.57v-.79h3.38v.79h-3.38z" fill="url(#4x6pdxjmrd)"/>
    <path d="M185.617 37.533v-1.12l-.05-.21v-1.91c0-.406-.12-.72-.36-.94-.233-.226-.587-.34-1.06-.34-.313 0-.62.054-.92.16-.3.1-.553.237-.76.41l-.4-.72c.273-.22.6-.386.98-.5.387-.12.79-.18 1.21-.18.727 0 1.287.177 1.68.53.393.354.59.894.59 1.62v3.2h-.91zm-1.74.06c-.393 0-.74-.066-1.04-.2a1.607 1.607 0 0 1-.68-.55c-.16-.24-.24-.51-.24-.81 0-.286.067-.546.2-.78.14-.233.363-.42.67-.56.313-.14.733-.21 1.26-.21h1.68v.69h-1.64c-.48 0-.803.08-.97.24a.774.774 0 0 0-.25.58c0 .26.103.47.31.63.207.154.493.23.86.23.36 0 .673-.08.94-.24.273-.16.47-.393.59-.7l.19.66c-.127.314-.35.564-.67.75-.32.18-.723.27-1.21.27z" fill="url(#j3q16wm65e)"/>
    <defs>
        <linearGradient id="6ww8kxevfa" x1="60.675" y1="-29.797" x2="108.408" y2="67.401" gradientUnits="userSpaceOnUse">
            <stop stop-color="#00EAFF"/>
            <stop offset=".27" stop-color="#9BE7FF"/>
            <stop offset=".72" stop-color="#A1E7FF"/>
            <stop offset="1" stop-color="#0AF"/>
        </linearGradient>
        <linearGradient id="u0p3gdbcub" x1="0" y1="18.797" x2="180.077" y2="18.797" gradientUnits="userSpaceOnUse">
            <stop offset=".214" stop-color="#fff"/>
            <stop offset="1" stop-color="#4FE5FF"/>
        </linearGradient>
        <linearGradient id="0v72z7me5c" x1="0" y1="18.797" x2="180.077" y2="18.797" gradientUnits="userSpaceOnUse">
            <stop offset=".214" stop-color="#fff"/>
            <stop offset="1" stop-color="#4FE5FF"/>
        </linearGradient>
        <linearGradient id="4x6pdxjmrd" x1="0" y1="18.797" x2="180.077" y2="18.797" gradientUnits="userSpaceOnUse">
            <stop offset=".214" stop-color="#fff"/>
            <stop offset="1" stop-color="#4FE5FF"/>
        </linearGradient>
        <linearGradient id="j3q16wm65e" x1="0" y1="18.797" x2="180.077" y2="18.797" gradientUnits="userSpaceOnUse">
            <stop offset=".214" stop-color="#fff"/>
            <stop offset="1" stop-color="#4FE5FF"/>
        </linearGradient>
    </defs>
</svg>
