<?xml version="1.0" encoding="UTF-8"?>
<svg id="Layer_1" data-name="Layer 1" xmlns="http://www.w3.org/2000/svg" xmlns:xlink="http://www.w3.org/1999/xlink" viewBox="20 0 312 132">
  <defs>
    <style>
      .cls-1 {
        fill: none;
      }

      .cls-2 {
        fill: url(#linear-gradient);
      }

      .cls-3 {
        clip-path: url(#clippath);
      }

      .cls-4 {
        fill: #fff;
      }

      .cls-5 {
        clip-path: url(#clippath-1);
      }
    </style>
    <clipPath id="clippath">
      <rect class="cls-1" x="25.03" y="45.7" width="41" height="41"/>
    </clipPath>
    <clipPath id="clippath-1">
      <rect class="cls-1" x="33.6" y="54.67" width="23" height="22.67"/>
    </clipPath>
    <linearGradient id="linear-gradient" x1="221.86" y1="29.7" x2="263.2" y2="101.3" gradientUnits="userSpaceOnUse">
      <stop offset="0" stop-color="#00eaff"/>
      <stop offset=".27" stop-color="#9be7ff"/>
      <stop offset=".72" stop-color="#a1e7ff"/>
      <stop offset="1" stop-color="#0af"/>
    </linearGradient>
  </defs>
  <g class="cls-3">
    <path class="cls-4" d="M45.53,45.7c-11.32,0-20.5,9.18-20.5,20.5s9.18,20.5,20.5,20.5,20.5-9.18,20.5-20.5-9.18-20.5-20.5-20.5"/>
  </g>
  <g class="cls-5">
    <path d="M55.75,55.83c-1.14-1.14-4.2,.63-6.6,2.33-1.18-.57-2.51-.89-3.9-.89-5.02,0-9.09,4.08-9.09,9.09,0,1.4,.33,2.72,.9,3.91-1.72,2.41-3.48,5.46-2.34,6.6,.26,.26,.61,.39,1.07,.39,.94,0,2.31-.56,4.08-1.68,.48-.3,.99-.65,1.5-1.02,1.18,.57,2.49,.9,3.89,.9,5.01,0,9.09-4.08,9.09-9.09,0-1.4-.33-2.71-.9-3.89,.37-.51,.71-1.02,1.02-1.49,1.65-2.62,2.09-4.35,1.29-5.15Zm-2.79,5.74c-.51,.73-1.09,1.51-1.76,2.32-.01,.01-.02,.02-.03,.03-.19,.24-.4,.48-.6,.72-.06,.08-.13,.15-.19,.22-.18,.21-.35,.42-.54,.63-.11,.13-.23,.26-.34,.38-.16,.17-.31,.34-.47,.52-.17,.19-.35,.38-.53,.57-.12,.12-.23,.24-.35,.37-.31,.32-.63,.65-.95,.97-.32,.32-.64,.64-.96,.94-.13,.13-.26,.24-.39,.36-.18,.18-.37,.35-.56,.52-.17,.16-.34,.32-.52,.47-.13,.12-.26,.23-.39,.35-.2,.18-.41,.36-.61,.53-.08,.07-.17,.14-.25,.21-.23,.2-.47,.4-.69,.58-.03,.02-.06,.04-.08,.06-.79,.65-1.55,1.22-2.26,1.71-.38,.27-.76,.53-1.11,.76-2.64,1.66-3.77,1.67-4.02,1.42-.33-.33,.03-1.95,2.19-5.07,.57,.91,1.29,1.71,2.13,2.37,1.82-1.24,4.17-3.15,6.89-5.86s4.6-5.06,5.85-6.89c-.66-.84-1.46-1.56-2.37-2.13,3.12-2.16,4.74-2.51,5.07-2.19,.26,.26,.24,1.39-1.42,4.02-.22,.35-.47,.71-.73,1.08Z"/>
  </g>
  <path class="cls-4" d="M74.87,75.01h4.96v-23.18h-4.96v23.18Z"/>
  <path class="cls-4" d="M84.27,75.01h4.6v-10.36c.69-.96,1.92-1.98,3.54-1.98,1.76,0,3.08,.99,3.08,3.11v9.23h4.6v-9.83c0-3.67-2.28-6.52-6.45-6.52-2.29,0-4.07,1.06-5.3,2.48v-2.02h-4.07v15.89Z"/>
  <path class="cls-4" d="M111.59,75.48c2.02,0,3.81-.4,5.36-1.06v-4.07c-1.16,.69-2.82,1.13-4.47,1.13-2.48,0-4.86-1.36-4.86-4.41,0-3.21,2.45-4.43,4.93-4.43,1.53,0,3.11,.46,4.24,1.19v-4.04c-1.43-.76-3.15-1.16-4.9-1.16-4.4,0-8.97,2.58-8.97,8.67,0,5.66,4.34,8.18,8.68,8.18Z"/>
  <path class="cls-4" d="M128.37,75.48c2.38,0,4.33-.36,5.82-.99v-3.61c-1.35,.56-2.98,.93-4.8,.93-2.62,0-5.07-.93-5.6-3.24h11.19c1.06-4.7-1.06-9.9-7.65-9.9-3.57,0-8.18,2.42-8.18,8.41,0,5.53,4.17,8.41,9.21,8.41Zm-4.6-9.9c.07-2.18,1.79-3.41,3.74-3.41,2.85,0,3.48,2.32,3.28,3.41h-7.02Z"/>
  <path class="cls-4" d="M138.2,82.29h4.6v-8.94c1.03,1.09,2.71,2.12,5.23,2.12,5.03,0,7.74-4.07,7.74-8.41s-2.71-8.41-7.74-8.41c-2.91,0-4.73,1.35-5.76,2.78v-2.32h-4.07v23.17Zm8.71-10.69c-1.99,0-3.48-1.29-4.1-2.65v-3.78c.63-1.36,2.11-2.65,4.1-2.65,2.65,0,4.17,2.05,4.17,4.53s-1.53,4.54-4.17,4.54Z"/>
  <path class="cls-4" d="M165.75,75.48c1.59,0,3.04-.27,4.27-.69v-3.71c-.93,.33-1.82,.49-2.88,.49-1.72,0-2.52-.7-2.52-2.35v-6.22h5v-3.88h-5v-5.73l-4.6,1.09v4.64h-2.68v3.88h2.68v7.11c0,3.94,2.65,5.36,5.73,5.36Z"/>
  <path class="cls-2" d="M181.02,75.62h15.06v-2.55h-12.38v-19.79h-2.68v22.34Zm19.24-18.57c.89,0,1.66-.54,1.66-1.63s-.77-1.63-1.66-1.63-1.66,.57-1.66,1.63,.76,1.63,1.66,1.63Zm-1.28,18.57h2.56v-15.32h-2.56v15.32Zm19.88,7.02h2.56v-22.34h-2.3v2.56c-1.37-1.56-3.25-2.94-6.19-2.94-4.37,0-7.66,3.44-7.66,8.04s3.29,8.04,7.66,8.04c2.94,0,4.82-1.37,5.93-2.68v9.32Zm-5.65-9c-2.97,0-5.39-2.17-5.39-5.68s2.43-5.69,5.39-5.69c2.75,0,4.79,1.79,5.65,3.77v3.83c-.86,1.98-2.9,3.77-5.65,3.77Zm19.12,2.36c2.46,0,4.5-1.3,5.52-2.64v2.26h2.3v-15.32h-2.56v10.27c-1.02,1.53-2.71,3.07-4.97,3.07-2.68,0-4.11-1.34-4.11-4.21v-9.13h-2.56v9.44c0,3.73,2.39,6.25,6.38,6.25Zm13.88-18.95c.89,0,1.66-.54,1.66-1.63s-.77-1.63-1.66-1.63-1.66,.57-1.66,1.63,.76,1.63,1.66,1.63Zm-1.28,18.57h2.56v-15.32h-2.56v15.32Zm13.94,.38c2.94,0,4.82-1.37,6.19-2.93v2.55h2.3v-22.34h-2.56v9.32c-1.12-1.31-3-2.68-5.93-2.68-4.37,0-7.66,3.44-7.66,8.04s3.29,8.04,7.66,8.04Zm.29-2.36c-2.97,0-5.39-2.17-5.39-5.68s2.43-5.69,5.39-5.69c2.75,0,4.79,1.79,5.65,3.77v3.83c-.86,1.98-2.9,3.77-5.65,3.77Zm14.27-16.59c.89,0,1.66-.54,1.66-1.63s-.77-1.63-1.66-1.63-1.66,.57-1.66,1.63,.76,1.63,1.66,1.63Zm-1.28,18.57h2.56v-15.32h-2.56v15.32Zm13.43,.35c1.47,0,2.97-.29,4.12-.7v-2.36c-1.02,.41-2.17,.7-3.39,.7-2.23,0-3.29-.7-3.29-3.04v-7.91h6.13v-2.36h-6.13v-5.39l-2.52,.64v4.76h-2.87v2.36h2.87v8.36c0,3.35,2.1,4.94,5.07,4.94Zm8.01,7.06c2.23,0,4.18-1.41,5.77-5.11l7.53-17.62h-2.71l-5.17,12.41-5.78-12.41h-2.71l7.28,15.35-.57,1.4c-.99,2.49-2.23,3.73-3.96,3.73-.44,0-.89-.06-1.34-.19v2.2c.58,.16,1.12,.22,1.66,.22Z"/>
</svg>