<svg width="1153" height="247" viewBox="0 0 1153 247" fill="none" xmlns="http://www.w3.org/2000/svg">
<path d="M248.962 145.818V48.606H260.674V135.375H305.631V145.818H248.962Z" fill="white"/>
<path d="M327.573 145.818V72.909H338.717V145.818H327.573ZM333.239 60.7575C331.067 60.7575 329.194 60.0139 327.62 58.5266C326.077 57.0393 325.306 55.2513 325.306 53.1628C325.306 51.0743 326.077 49.2863 327.62 47.7991C329.194 46.3118 331.067 45.5681 333.239 45.5681C335.412 45.5681 337.269 46.3118 338.812 47.7991C340.386 49.2863 341.173 51.0743 341.173 53.1628C341.173 55.2513 340.386 57.0393 338.812 58.5266C337.269 60.0139 335.412 60.7575 333.239 60.7575Z" fill="white"/>
<path d="M413.939 173.159V134.616H412.995C412.176 135.945 411.011 137.622 409.5 139.647C407.989 141.641 405.832 143.429 403.031 145.011C400.229 146.562 396.498 147.337 391.839 147.337C385.794 147.337 380.458 145.802 375.83 142.733C371.202 139.632 367.581 135.265 364.968 129.632C362.355 123.967 361.049 117.275 361.049 109.553C361.049 101.895 362.355 95.2501 364.968 89.6173C367.581 83.9846 371.218 79.6335 375.877 76.564C380.536 73.4944 385.92 71.9597 392.027 71.9597C396.75 71.9597 400.48 72.7508 403.219 74.333C405.99 75.8836 408.099 77.6557 409.547 79.6493C411.027 81.6113 412.176 83.2251 412.995 84.4909H414.317V72.909H425.084V173.159H413.939ZM393.35 137.274C397.82 137.274 401.598 136.103 404.683 133.761C407.769 131.388 410.114 128.113 411.72 123.936C413.325 119.727 414.128 114.87 414.128 109.364C414.128 103.921 413.341 99.1582 411.767 95.076C410.193 90.9622 407.863 87.7661 404.778 85.4877C401.693 83.1777 397.883 82.0226 393.35 82.0226C388.627 82.0226 384.692 83.241 381.544 85.6776C378.427 88.0826 376.082 91.3578 374.508 95.5032C372.965 99.617 372.194 104.237 372.194 109.364C372.194 114.553 372.981 119.268 374.555 123.509C376.16 127.717 378.522 131.072 381.638 133.572C384.787 136.04 388.69 137.274 393.35 137.274Z" fill="white"/>
<path d="M496.516 116.009V72.909H507.661V145.818H496.516V133.477H495.76C494.06 137.179 491.416 140.328 487.827 142.923C484.238 145.486 479.705 146.767 474.227 146.767C469.693 146.767 465.663 145.771 462.137 143.777C458.611 141.752 455.841 138.714 453.826 134.663C451.811 130.581 450.804 125.439 450.804 119.237V72.909H461.948V118.477C461.948 123.793 463.428 128.034 466.387 131.198C469.378 134.363 473.188 135.945 477.816 135.945C480.586 135.945 483.404 135.233 486.269 133.809C489.165 132.385 491.589 130.201 493.541 127.259C495.524 124.316 496.516 120.566 496.516 116.009Z" fill="white"/>
<path d="M533.392 145.818V72.909H544.537V145.818H533.392ZM539.059 60.7575C536.887 60.7575 535.014 60.0139 533.44 58.5266C531.897 57.0393 531.126 55.2513 531.126 53.1628C531.126 51.0743 531.897 49.2863 533.44 47.7991C535.014 46.3118 536.887 45.5681 539.059 45.5681C541.232 45.5681 543.089 46.3118 544.632 47.7991C546.206 49.2863 546.993 51.0743 546.993 53.1628C546.993 55.2513 546.206 57.0393 544.632 58.5266C543.089 60.0139 541.232 60.7575 539.059 60.7575Z" fill="white"/>
<path d="M597.658 147.337C591.614 147.337 586.278 145.802 581.65 142.733C577.022 139.632 573.401 135.265 570.788 129.632C568.175 123.967 566.869 117.275 566.869 109.553C566.869 101.895 568.175 95.2501 570.788 89.6173C573.401 83.9846 577.038 79.6335 581.697 76.564C586.356 73.4944 591.74 71.9597 597.847 71.9597C602.57 71.9597 606.3 72.7508 609.039 74.333C611.81 75.8836 613.919 77.6557 615.367 79.6493C616.847 81.6113 617.996 83.2251 618.815 84.4909H619.759V48.606H630.904V145.818H620.137V134.616H618.815C617.996 135.945 616.831 137.622 615.32 139.647C613.809 141.641 611.652 143.429 608.85 145.011C606.048 146.562 602.318 147.337 597.658 147.337ZM599.17 137.274C603.64 137.274 607.418 136.103 610.503 133.761C613.589 131.388 615.934 128.113 617.54 123.936C619.145 119.727 619.948 114.87 619.948 109.364C619.948 103.921 619.161 99.1582 617.587 95.076C616.013 90.9622 613.683 87.7661 610.598 85.4877C607.512 83.1777 603.703 82.0226 599.17 82.0226C594.447 82.0226 590.512 83.241 587.364 85.6776C584.247 88.0826 581.902 91.3578 580.327 95.5032C578.785 99.617 578.013 104.237 578.013 109.364C578.013 114.553 578.801 119.268 580.375 123.509C581.98 127.717 584.341 131.072 587.458 133.572C590.606 136.04 594.51 137.274 599.17 137.274Z" fill="white"/>
<path d="M658.182 145.818V72.909H669.327V145.818H658.182ZM663.849 60.7575C661.677 60.7575 659.803 60.0139 658.229 58.5266C656.687 57.0393 655.915 55.2513 655.915 53.1628C655.915 51.0743 656.687 49.2863 658.229 47.7991C659.803 46.3118 661.677 45.5681 663.849 45.5681C666.021 45.5681 667.879 46.3118 669.421 47.7991C670.995 49.2863 671.782 51.0743 671.782 53.1628C671.782 55.2513 670.995 57.0393 669.421 58.5266C667.879 60.0139 666.021 60.7575 663.849 60.7575Z" fill="white"/>
<path d="M726.604 72.909V82.4024H689.014V72.909H726.604ZM699.97 55.4412H711.114V124.933C711.114 128.097 711.571 130.47 712.484 132.053C713.428 133.603 714.625 134.648 716.073 135.185C717.553 135.692 719.111 135.945 720.748 135.945C721.976 135.945 722.983 135.882 723.77 135.755C724.557 135.597 725.187 135.47 725.659 135.375L727.926 145.438C727.17 145.723 726.116 146.008 724.762 146.293C723.408 146.609 721.692 146.767 719.615 146.767C716.466 146.767 713.381 146.087 710.359 144.726C707.368 143.366 704.881 141.293 702.897 138.508C700.946 135.723 699.97 132.211 699.97 127.971V55.4412Z" fill="white"/>
<path d="M755.865 173.159C753.976 173.159 752.292 173.001 750.812 172.684C749.333 172.399 748.309 172.115 747.743 171.83L750.576 161.957C753.284 162.653 755.676 162.906 757.754 162.716C759.832 162.526 761.674 161.593 763.279 159.916C764.916 158.27 766.412 155.596 767.766 151.894L769.843 146.198L743.02 72.909H755.11L775.132 131.008H775.888L795.911 72.909H808L777.21 156.451C775.825 160.216 774.109 163.333 772.063 165.802C770.017 168.302 767.64 170.153 764.932 171.355C762.256 172.558 759.234 173.159 755.865 173.159Z" fill="white"/>
<path d="M664.897 246.068V193.043H670.976V212.617H671.491C671.937 211.926 672.556 211.046 673.345 209.976C674.153 208.889 675.303 207.922 676.797 207.076C678.308 206.213 680.352 205.782 682.928 205.782C686.259 205.782 689.195 206.619 691.737 208.293C694.278 209.967 696.262 212.341 697.687 215.413C699.112 218.485 699.825 222.11 699.825 226.287C699.825 230.499 699.112 234.149 697.687 237.239C696.262 240.312 694.287 242.694 691.763 244.385C689.238 246.059 686.328 246.896 683.031 246.896C680.489 246.896 678.454 246.474 676.926 245.628C675.398 244.765 674.221 243.79 673.397 242.702C672.573 241.597 671.937 240.683 671.491 239.958H670.77V246.068H664.897ZM670.873 226.184C670.873 229.187 671.311 231.837 672.186 234.132C673.062 236.411 674.341 238.197 676.024 239.492C677.707 240.769 679.768 241.408 682.206 241.408C684.748 241.408 686.869 240.734 688.569 239.388C690.286 238.025 691.574 236.195 692.432 233.899C693.308 231.586 693.746 229.014 693.746 226.184C693.746 223.387 693.317 220.867 692.458 218.624C691.617 216.362 690.337 214.576 688.62 213.264C686.92 211.935 684.782 211.27 682.206 211.27C679.733 211.27 677.656 211.9 675.973 213.161C674.29 214.403 673.019 216.147 672.161 218.39C671.302 220.617 670.873 223.215 670.873 226.184Z" fill="white"/>
<path d="M725.712 246.896C721.9 246.896 718.611 246.051 715.847 244.359C713.099 242.65 710.978 240.268 709.484 237.213C708.008 234.141 707.269 230.568 707.269 226.494C707.269 222.421 708.008 218.831 709.484 215.724C710.978 212.6 713.056 210.166 715.718 208.422C718.397 206.662 721.522 205.782 725.094 205.782C727.154 205.782 729.189 206.127 731.199 206.817C733.208 207.508 735.037 208.63 736.685 210.183C738.334 211.719 739.647 213.756 740.626 216.293C741.605 218.831 742.094 221.955 742.094 225.666V228.255H711.596V222.973H735.912C735.912 220.729 735.466 218.727 734.573 216.966C733.697 215.206 732.444 213.816 730.812 212.798C729.198 211.78 727.292 211.27 725.094 211.27C722.673 211.27 720.578 211.875 718.809 213.083C717.057 214.274 715.709 215.827 714.765 217.743C713.82 219.659 713.348 221.713 713.348 223.905V227.426C713.348 230.43 713.863 232.976 714.894 235.064C715.941 237.136 717.392 238.715 719.247 239.802C721.101 240.873 723.256 241.408 725.712 241.408C727.309 241.408 728.752 241.183 730.039 240.734C731.345 240.268 732.469 239.578 733.414 238.663C734.358 237.731 735.088 236.575 735.603 235.194L741.476 236.851C740.858 238.853 739.819 240.614 738.359 242.133C736.9 243.634 735.097 244.808 732.95 245.654C730.804 246.482 728.391 246.896 725.712 246.896Z" fill="white"/>
<path d="M768.548 206.299V211.478H748.044V206.299H768.548ZM754.02 196.772H760.099V234.676C760.099 236.402 760.348 237.697 760.846 238.56C761.361 239.405 762.014 239.975 762.804 240.268C763.611 240.545 764.461 240.683 765.354 240.683C766.024 240.683 766.573 240.648 767.003 240.579C767.432 240.493 767.775 240.424 768.033 240.372L769.269 245.861C768.857 246.016 768.282 246.172 767.543 246.327C766.805 246.499 765.869 246.586 764.736 246.586C763.019 246.586 761.336 246.215 759.687 245.472C758.056 244.73 756.699 243.6 755.617 242.081C754.553 240.562 754.02 238.646 754.02 236.333V196.772Z" fill="white"/>
<path d="M789.335 247C786.828 247 784.553 246.525 782.509 245.576C780.466 244.609 778.843 243.22 777.641 241.408C776.439 239.578 775.838 237.369 775.838 234.78C775.838 232.501 776.284 230.654 777.177 229.239C778.07 227.806 779.263 226.684 780.757 225.873C782.251 225.062 783.9 224.458 785.703 224.061C787.523 223.646 789.352 223.318 791.19 223.077C793.594 222.766 795.543 222.533 797.037 222.378C798.548 222.205 799.647 221.92 800.334 221.523C801.038 221.126 801.39 220.436 801.39 219.452V219.245C801.39 216.69 800.694 214.705 799.303 213.29C797.93 211.875 795.843 211.167 793.044 211.167C790.142 211.167 787.867 211.806 786.218 213.083C784.57 214.36 783.411 215.724 782.741 217.174L776.971 215.102C778.001 212.686 779.375 210.804 781.092 209.458C782.827 208.095 784.716 207.145 786.759 206.61C788.82 206.058 790.846 205.782 792.838 205.782C794.109 205.782 795.568 205.937 797.217 206.248C798.883 206.541 800.488 207.154 802.034 208.086C803.596 209.018 804.893 210.425 805.923 212.306C806.954 214.188 807.469 216.708 807.469 219.866V246.068H801.39V240.683H801.081C800.669 241.546 799.982 242.469 799.02 243.453C798.058 244.437 796.779 245.274 795.182 245.964C793.585 246.655 791.636 247 789.335 247ZM790.262 241.511C792.666 241.511 794.693 241.036 796.341 240.087C798.007 239.138 799.26 237.912 800.102 236.411C800.961 234.909 801.39 233.33 801.39 231.673V226.08C801.132 226.391 800.566 226.676 799.69 226.935C798.831 227.176 797.835 227.392 796.702 227.582C795.586 227.754 794.495 227.91 793.431 228.048C792.383 228.169 791.533 228.272 790.88 228.359C789.301 228.566 787.824 228.902 786.45 229.368C785.093 229.817 783.994 230.499 783.153 231.414C782.329 232.311 781.917 233.537 781.917 235.09C781.917 237.213 782.698 238.819 784.261 239.906C785.84 240.976 787.841 241.511 790.262 241.511Z" fill="white"/>
<path d="M94.929 0C42.5096 0 0 42.4655 0 94.8304C0 147.195 42.5096 189.661 94.929 189.661C147.348 189.661 189.858 147.195 189.858 94.8304C189.858 42.4655 147.348 0 94.929 0Z" fill="white"/>
<path d="M143.246 45.7354C137.967 40.4619 123.797 48.6496 112.684 56.5136C107.219 53.8769 101.061 52.3966 94.6239 52.3966C71.3779 52.3966 52.531 71.2702 52.531 94.4458C52.531 100.922 54.0592 107.028 56.6987 112.533C48.7339 123.681 40.5839 137.79 45.8629 143.064C47.0668 144.266 48.6876 144.868 50.8177 144.868C55.1705 144.868 61.5145 142.277 69.7109 137.096C71.9336 135.709 74.2952 134.09 76.6569 132.378C82.1211 135.015 88.1873 136.541 94.6702 136.541C117.87 136.541 136.763 117.668 136.763 94.4921C136.763 88.0158 135.235 81.9559 132.596 76.4974C134.309 74.1382 135.883 71.779 137.319 69.6049C144.959 57.4851 146.997 49.4823 143.292 45.7816L143.246 45.7354ZM130.326 72.2879C127.965 75.6647 125.279 79.2729 122.176 83.0199C122.13 83.0661 122.084 83.1124 122.038 83.1586C121.158 84.2689 120.185 85.3791 119.259 86.4893C118.981 86.8593 118.657 87.1832 118.379 87.507C117.546 88.4784 116.759 89.4498 115.879 90.4213C115.369 91.0226 114.814 91.624 114.304 92.1791C113.563 92.9655 112.869 93.7519 112.128 94.5846C111.341 95.4635 110.507 96.3424 109.674 97.2213C109.118 97.7764 108.609 98.3315 108.053 98.9329C106.617 100.413 105.136 101.94 103.654 103.42C102.172 104.9 100.69 106.381 99.2083 107.768C98.6063 108.37 98.0043 108.878 97.4023 109.434C96.5688 110.266 95.689 111.053 94.8092 111.839C94.0219 112.579 93.2347 113.319 92.4012 114.013C91.7992 114.568 91.1972 115.077 90.5952 115.632C89.6691 116.465 88.6967 117.298 87.7705 118.084C87.4001 118.408 86.9833 118.732 86.6128 119.055C85.5478 119.981 84.4364 120.906 83.4177 121.738C83.2788 121.831 83.1398 121.923 83.0472 122.016C79.389 125.023 75.8697 127.66 72.5819 129.926C70.8222 131.175 69.0626 132.378 67.4418 133.442C55.2168 141.121 49.9842 141.167 48.8265 140.011C47.2984 138.484 48.9654 130.99 58.9677 116.557C61.6072 120.767 64.9413 124.468 68.831 127.521C77.2589 121.785 88.141 112.949 100.736 100.413C113.332 87.877 122.038 77.0062 127.826 68.5409C124.77 64.6552 121.065 61.3245 116.851 58.6878C131.299 48.6959 138.801 47.0768 140.329 48.5571C141.533 49.7599 141.44 54.9871 133.753 67.1531C132.734 68.7722 131.577 70.4375 130.373 72.1491L130.326 72.2879Z" fill="black"/>
<rect x="863" y="88" width="290" height="115" rx="57.5" fill="white"/>
<mask id="path-6-outside-1_4122_4388" maskUnits="userSpaceOnUse" x="910" y="124" width="195" height="43" fill="black">
<rect fill="white" x="910" y="124" width="195" height="43"/>
<path d="M923.513 165.369H911V125H924.068C928.001 125 931.367 125.808 934.165 127.425C936.964 129.028 939.109 131.334 940.6 134.343C942.092 137.339 942.838 140.927 942.838 145.106C942.838 149.311 942.085 152.931 940.58 155.967C939.076 158.989 936.885 161.315 934.007 162.945C931.13 164.561 927.632 165.369 923.513 165.369ZM915.91 161.033H923.197C926.549 161.033 929.328 160.389 931.532 159.101C933.736 157.813 935.38 155.98 936.462 153.601C937.545 151.223 938.086 148.391 938.086 145.106C938.086 141.847 937.551 139.041 936.482 136.689C935.413 134.324 933.816 132.51 931.691 131.249C929.565 129.974 926.919 129.337 923.751 129.337H915.91V161.033Z"/>
<path d="M965.422 166C962.491 166 959.964 165.356 957.839 164.068C955.727 162.767 954.096 160.954 952.948 158.628C951.813 156.289 951.245 153.569 951.245 150.467C951.245 147.366 951.813 144.633 952.948 142.267C954.096 139.889 955.694 138.036 957.74 136.709C959.799 135.368 962.201 134.698 964.947 134.698C966.531 134.698 968.095 134.961 969.639 135.487C971.183 136.012 972.589 136.866 973.856 138.049C975.124 139.219 976.133 140.769 976.886 142.701C977.638 144.633 978.014 147.011 978.014 149.837V151.808H954.572V147.787H973.262C973.262 146.078 972.919 144.554 972.233 143.213C971.56 141.873 970.596 140.815 969.342 140.04C968.101 139.265 966.636 138.877 964.947 138.877C963.085 138.877 961.475 139.337 960.116 140.257C958.769 141.163 957.733 142.346 957.007 143.805C956.281 145.263 955.918 146.827 955.918 148.496V151.177C955.918 153.463 956.314 155.402 957.106 156.992C957.911 158.569 959.027 159.771 960.452 160.599C961.878 161.414 963.534 161.821 965.422 161.821C966.649 161.821 967.758 161.65 968.748 161.309C969.751 160.954 970.616 160.428 971.342 159.732C972.068 159.022 972.629 158.142 973.025 157.09L977.539 158.352C977.064 159.876 976.265 161.217 975.143 162.373C974.021 163.516 972.635 164.41 970.985 165.054C969.335 165.685 967.481 166 965.422 166Z"/>
<path d="M1011.3 135.092L1000.05 165.369H995.297L984.051 135.092H989.12L997.515 159.219H997.831L1006.23 135.092H1011.3Z"/>
<path d="M1024.37 147.156V165.369H1019.69V135.092H1024.21V139.823H1024.6C1025.32 138.286 1026.4 137.05 1027.85 136.117C1029.3 135.171 1031.18 134.698 1033.47 134.698C1035.53 134.698 1037.33 135.119 1038.88 135.96C1040.42 136.788 1041.62 138.049 1042.48 139.744C1043.34 141.426 1043.77 143.555 1043.77 146.131V165.369H1039.1V146.446C1039.1 144.068 1038.48 142.215 1037.24 140.887C1035.99 139.547 1034.29 138.877 1032.13 138.877C1030.64 138.877 1029.3 139.199 1028.13 139.843C1026.97 140.487 1026.05 141.426 1025.38 142.662C1024.7 143.897 1024.37 145.395 1024.37 147.156Z"/>
<path d="M1067.29 166C1064.36 166 1061.83 165.356 1059.71 164.068C1057.59 162.767 1055.96 160.954 1054.82 158.628C1053.68 156.289 1053.11 153.569 1053.11 150.467C1053.11 147.366 1053.68 144.633 1054.82 142.267C1055.96 139.889 1057.56 138.036 1059.61 136.709C1061.67 135.368 1064.07 134.698 1066.81 134.698C1068.4 134.698 1069.96 134.961 1071.51 135.487C1073.05 136.012 1074.46 136.866 1075.72 138.049C1076.99 139.219 1078 140.769 1078.75 142.701C1079.51 144.633 1079.88 147.011 1079.88 149.837V151.808H1056.44V147.787H1075.13C1075.13 146.078 1074.79 144.554 1074.1 143.213C1073.43 141.873 1072.46 140.815 1071.21 140.04C1069.97 139.265 1068.5 138.877 1066.81 138.877C1064.95 138.877 1063.34 139.337 1061.98 140.257C1060.64 141.163 1059.6 142.346 1058.87 143.805C1058.15 145.263 1057.78 146.827 1057.78 148.496V151.177C1057.78 153.463 1058.18 155.402 1058.97 156.992C1059.78 158.569 1060.89 159.771 1062.32 160.599C1063.74 161.414 1065.4 161.821 1067.29 161.821C1068.52 161.821 1069.63 161.65 1070.62 161.309C1071.62 160.954 1072.48 160.428 1073.21 159.732C1073.93 159.022 1074.5 158.142 1074.89 157.09L1079.41 158.352C1078.93 159.876 1078.13 161.217 1077.01 162.373C1075.89 163.516 1074.5 164.41 1072.85 165.054C1071.2 165.685 1069.35 166 1067.29 166Z"/>
<path d="M1102.45 135.092V139.035H1086.69V135.092H1102.45ZM1091.28 127.838H1095.95V156.696C1095.95 158.01 1096.14 158.996 1096.53 159.653C1096.92 160.297 1097.42 160.73 1098.03 160.954C1098.65 161.164 1099.3 161.269 1099.99 161.269C1100.51 161.269 1100.93 161.243 1101.26 161.19C1101.59 161.125 1101.85 161.072 1102.05 161.033L1103 165.212C1102.68 165.33 1102.24 165.448 1101.67 165.566C1101.11 165.698 1100.39 165.763 1099.52 165.763C1098.2 165.763 1096.9 165.481 1095.63 164.916C1094.38 164.351 1093.34 163.49 1092.51 162.334C1091.69 161.177 1091.28 159.719 1091.28 157.958V127.838Z"/>
</mask>
<path d="M923.513 165.369H911V125H924.068C928.001 125 931.367 125.808 934.165 127.425C936.964 129.028 939.109 131.334 940.6 134.343C942.092 137.339 942.838 140.927 942.838 145.106C942.838 149.311 942.085 152.931 940.58 155.967C939.076 158.989 936.885 161.315 934.007 162.945C931.13 164.561 927.632 165.369 923.513 165.369ZM915.91 161.033H923.197C926.549 161.033 929.328 160.389 931.532 159.101C933.736 157.813 935.38 155.98 936.462 153.601C937.545 151.223 938.086 148.391 938.086 145.106C938.086 141.847 937.551 139.041 936.482 136.689C935.413 134.324 933.816 132.51 931.691 131.249C929.565 129.974 926.919 129.337 923.751 129.337H915.91V161.033Z" fill="black"/>
<path d="M965.422 166C962.491 166 959.964 165.356 957.839 164.068C955.727 162.767 954.096 160.954 952.948 158.628C951.813 156.289 951.245 153.569 951.245 150.467C951.245 147.366 951.813 144.633 952.948 142.267C954.096 139.889 955.694 138.036 957.74 136.709C959.799 135.368 962.201 134.698 964.947 134.698C966.531 134.698 968.095 134.961 969.639 135.487C971.183 136.012 972.589 136.866 973.856 138.049C975.124 139.219 976.133 140.769 976.886 142.701C977.638 144.633 978.014 147.011 978.014 149.837V151.808H954.572V147.787H973.262C973.262 146.078 972.919 144.554 972.233 143.213C971.56 141.873 970.596 140.815 969.342 140.04C968.101 139.265 966.636 138.877 964.947 138.877C963.085 138.877 961.475 139.337 960.116 140.257C958.769 141.163 957.733 142.346 957.007 143.805C956.281 145.263 955.918 146.827 955.918 148.496V151.177C955.918 153.463 956.314 155.402 957.106 156.992C957.911 158.569 959.027 159.771 960.452 160.599C961.878 161.414 963.534 161.821 965.422 161.821C966.649 161.821 967.758 161.65 968.748 161.309C969.751 160.954 970.616 160.428 971.342 159.732C972.068 159.022 972.629 158.142 973.025 157.09L977.539 158.352C977.064 159.876 976.265 161.217 975.143 162.373C974.021 163.516 972.635 164.41 970.985 165.054C969.335 165.685 967.481 166 965.422 166Z" fill="black"/>
<path d="M1011.3 135.092L1000.05 165.369H995.297L984.051 135.092H989.12L997.515 159.219H997.831L1006.23 135.092H1011.3Z" fill="black"/>
<path d="M1024.37 147.156V165.369H1019.69V135.092H1024.21V139.823H1024.6C1025.32 138.286 1026.4 137.05 1027.85 136.117C1029.3 135.171 1031.18 134.698 1033.47 134.698C1035.53 134.698 1037.33 135.119 1038.88 135.96C1040.42 136.788 1041.62 138.049 1042.48 139.744C1043.34 141.426 1043.77 143.555 1043.77 146.131V165.369H1039.1V146.446C1039.1 144.068 1038.48 142.215 1037.24 140.887C1035.99 139.547 1034.29 138.877 1032.13 138.877C1030.64 138.877 1029.3 139.199 1028.13 139.843C1026.97 140.487 1026.05 141.426 1025.38 142.662C1024.7 143.897 1024.37 145.395 1024.37 147.156Z" fill="black"/>
<path d="M1067.29 166C1064.36 166 1061.83 165.356 1059.71 164.068C1057.59 162.767 1055.96 160.954 1054.82 158.628C1053.68 156.289 1053.11 153.569 1053.11 150.467C1053.11 147.366 1053.68 144.633 1054.82 142.267C1055.96 139.889 1057.56 138.036 1059.61 136.709C1061.67 135.368 1064.07 134.698 1066.81 134.698C1068.4 134.698 1069.96 134.961 1071.51 135.487C1073.05 136.012 1074.46 136.866 1075.72 138.049C1076.99 139.219 1078 140.769 1078.75 142.701C1079.51 144.633 1079.88 147.011 1079.88 149.837V151.808H1056.44V147.787H1075.13C1075.13 146.078 1074.79 144.554 1074.1 143.213C1073.43 141.873 1072.46 140.815 1071.21 140.04C1069.97 139.265 1068.5 138.877 1066.81 138.877C1064.95 138.877 1063.34 139.337 1061.98 140.257C1060.64 141.163 1059.6 142.346 1058.87 143.805C1058.15 145.263 1057.78 146.827 1057.78 148.496V151.177C1057.78 153.463 1058.18 155.402 1058.97 156.992C1059.78 158.569 1060.89 159.771 1062.32 160.599C1063.74 161.414 1065.4 161.821 1067.29 161.821C1068.52 161.821 1069.63 161.65 1070.62 161.309C1071.62 160.954 1072.48 160.428 1073.21 159.732C1073.93 159.022 1074.5 158.142 1074.89 157.09L1079.41 158.352C1078.93 159.876 1078.13 161.217 1077.01 162.373C1075.89 163.516 1074.5 164.41 1072.85 165.054C1071.2 165.685 1069.35 166 1067.29 166Z" fill="black"/>
<path d="M1102.45 135.092V139.035H1086.69V135.092H1102.45ZM1091.28 127.838H1095.95V156.696C1095.95 158.01 1096.14 158.996 1096.53 159.653C1096.92 160.297 1097.42 160.73 1098.03 160.954C1098.65 161.164 1099.3 161.269 1099.99 161.269C1100.51 161.269 1100.93 161.243 1101.26 161.19C1101.59 161.125 1101.85 161.072 1102.05 161.033L1103 165.212C1102.68 165.33 1102.24 165.448 1101.67 165.566C1101.11 165.698 1100.39 165.763 1099.52 165.763C1098.2 165.763 1096.9 165.481 1095.63 164.916C1094.38 164.351 1093.34 163.49 1092.51 162.334C1091.69 161.177 1091.28 159.719 1091.28 157.958V127.838Z" fill="black"/>
<path d="M923.513 165.369H911V125H924.068C928.001 125 931.367 125.808 934.165 127.425C936.964 129.028 939.109 131.334 940.6 134.343C942.092 137.339 942.838 140.927 942.838 145.106C942.838 149.311 942.085 152.931 940.58 155.967C939.076 158.989 936.885 161.315 934.007 162.945C931.13 164.561 927.632 165.369 923.513 165.369ZM915.91 161.033H923.197C926.549 161.033 929.328 160.389 931.532 159.101C933.736 157.813 935.38 155.98 936.462 153.601C937.545 151.223 938.086 148.391 938.086 145.106C938.086 141.847 937.551 139.041 936.482 136.689C935.413 134.324 933.816 132.51 931.691 131.249C929.565 129.974 926.919 129.337 923.751 129.337H915.91V161.033Z" stroke="black" stroke-width="2" mask="url(#path-6-outside-1_4122_4388)"/>
<path d="M965.422 166C962.491 166 959.964 165.356 957.839 164.068C955.727 162.767 954.096 160.954 952.948 158.628C951.813 156.289 951.245 153.569 951.245 150.467C951.245 147.366 951.813 144.633 952.948 142.267C954.096 139.889 955.694 138.036 957.74 136.709C959.799 135.368 962.201 134.698 964.947 134.698C966.531 134.698 968.095 134.961 969.639 135.487C971.183 136.012 972.589 136.866 973.856 138.049C975.124 139.219 976.133 140.769 976.886 142.701C977.638 144.633 978.014 147.011 978.014 149.837V151.808H954.572V147.787H973.262C973.262 146.078 972.919 144.554 972.233 143.213C971.56 141.873 970.596 140.815 969.342 140.04C968.101 139.265 966.636 138.877 964.947 138.877C963.085 138.877 961.475 139.337 960.116 140.257C958.769 141.163 957.733 142.346 957.007 143.805C956.281 145.263 955.918 146.827 955.918 148.496V151.177C955.918 153.463 956.314 155.402 957.106 156.992C957.911 158.569 959.027 159.771 960.452 160.599C961.878 161.414 963.534 161.821 965.422 161.821C966.649 161.821 967.758 161.65 968.748 161.309C969.751 160.954 970.616 160.428 971.342 159.732C972.068 159.022 972.629 158.142 973.025 157.09L977.539 158.352C977.064 159.876 976.265 161.217 975.143 162.373C974.021 163.516 972.635 164.41 970.985 165.054C969.335 165.685 967.481 166 965.422 166Z" stroke="black" stroke-width="2" mask="url(#path-6-outside-1_4122_4388)"/>
<path d="M1011.3 135.092L1000.05 165.369H995.297L984.051 135.092H989.12L997.515 159.219H997.831L1006.23 135.092H1011.3Z" stroke="black" stroke-width="2" mask="url(#path-6-outside-1_4122_4388)"/>
<path d="M1024.37 147.156V165.369H1019.69V135.092H1024.21V139.823H1024.6C1025.32 138.286 1026.4 137.05 1027.85 136.117C1029.3 135.171 1031.18 134.698 1033.47 134.698C1035.53 134.698 1037.33 135.119 1038.88 135.96C1040.42 136.788 1041.62 138.049 1042.48 139.744C1043.34 141.426 1043.77 143.555 1043.77 146.131V165.369H1039.1V146.446C1039.1 144.068 1038.48 142.215 1037.24 140.887C1035.99 139.547 1034.29 138.877 1032.13 138.877C1030.64 138.877 1029.3 139.199 1028.13 139.843C1026.97 140.487 1026.05 141.426 1025.38 142.662C1024.7 143.897 1024.37 145.395 1024.37 147.156Z" stroke="black" stroke-width="2" mask="url(#path-6-outside-1_4122_4388)"/>
<path d="M1067.29 166C1064.36 166 1061.83 165.356 1059.71 164.068C1057.59 162.767 1055.96 160.954 1054.82 158.628C1053.68 156.289 1053.11 153.569 1053.11 150.467C1053.11 147.366 1053.68 144.633 1054.82 142.267C1055.96 139.889 1057.56 138.036 1059.61 136.709C1061.67 135.368 1064.07 134.698 1066.81 134.698C1068.4 134.698 1069.96 134.961 1071.51 135.487C1073.05 136.012 1074.46 136.866 1075.72 138.049C1076.99 139.219 1078 140.769 1078.75 142.701C1079.51 144.633 1079.88 147.011 1079.88 149.837V151.808H1056.44V147.787H1075.13C1075.13 146.078 1074.79 144.554 1074.1 143.213C1073.43 141.873 1072.46 140.815 1071.21 140.04C1069.97 139.265 1068.5 138.877 1066.81 138.877C1064.95 138.877 1063.34 139.337 1061.98 140.257C1060.64 141.163 1059.6 142.346 1058.87 143.805C1058.15 145.263 1057.78 146.827 1057.78 148.496V151.177C1057.78 153.463 1058.18 155.402 1058.97 156.992C1059.78 158.569 1060.89 159.771 1062.32 160.599C1063.74 161.414 1065.4 161.821 1067.29 161.821C1068.52 161.821 1069.63 161.65 1070.62 161.309C1071.62 160.954 1072.48 160.428 1073.21 159.732C1073.93 159.022 1074.5 158.142 1074.89 157.09L1079.41 158.352C1078.93 159.876 1078.13 161.217 1077.01 162.373C1075.89 163.516 1074.5 164.41 1072.85 165.054C1071.2 165.685 1069.35 166 1067.29 166Z" stroke="black" stroke-width="2" mask="url(#path-6-outside-1_4122_4388)"/>
<path d="M1102.45 135.092V139.035H1086.69V135.092H1102.45ZM1091.28 127.838H1095.95V156.696C1095.95 158.01 1096.14 158.996 1096.53 159.653C1096.92 160.297 1097.42 160.73 1098.03 160.954C1098.65 161.164 1099.3 161.269 1099.99 161.269C1100.51 161.269 1100.93 161.243 1101.26 161.19C1101.59 161.125 1101.85 161.072 1102.05 161.033L1103 165.212C1102.68 165.33 1102.24 165.448 1101.67 165.566C1101.11 165.698 1100.39 165.763 1099.52 165.763C1098.2 165.763 1096.9 165.481 1095.63 164.916C1094.38 164.351 1093.34 163.49 1092.51 162.334C1091.69 161.177 1091.28 159.719 1091.28 157.958V127.838Z" stroke="black" stroke-width="2" mask="url(#path-6-outside-1_4122_4388)"/>
</svg>
