<svg width="18" height="18" viewBox="0 0 18 18" fill="none" xmlns="http://www.w3.org/2000/svg">
    <path d="m5.573 3.085-2.143 1.2 1.2-2.142L3.43 0l2.143 1.2L7.716 0l-1.2 2.143 1.2 2.142-2.143-1.2zm10.284 8.4 2.143-1.2-1.2 2.142L18 14.57l-2.143-1.2-2.142 1.2 1.2-2.143-1.2-2.143 2.142 1.2zM18 0l-1.2 2.143L18 4.285l-2.143-1.2-2.142 1.2 1.2-2.142L13.715 0l2.142 1.2L18 0zm-7.422 9.239 2.091-2.091-1.817-1.817-2.09 2.091 1.816 1.817zm.883-4.705 2.005 2.005c.335.317.335.874 0 1.209L3.465 17.749c-.335.335-.892.335-1.209 0L.251 15.744c-.335-.317-.335-.874 0-1.209L10.252 4.534c.335-.335.892-.335 1.209 0z" fill="#fff"/>
</svg>
