<svg width="22" height="23" viewBox="0 0 22 23" fill="none" xmlns="http://www.w3.org/2000/svg">
    <path d="M19.284 11.5A5.858 5.858 0 0 0 11 3.216m8.284 8.284a5.858 5.858 0 0 1-8.284 0m8.284 0A5.858 5.858 0 0 1 11 19.784m8.284-8.284a5.858 5.858 0 0 0-8.284 0m0-8.284a5.858 5.858 0 0 0 0 8.284m0-8.284a5.858 5.858 0 0 1 0 8.284m0-8.284A5.858 5.858 0 0 0 2.716 11.5m8.284 0a5.858 5.858 0 0 0 0 8.284m0-8.284a5.858 5.858 0 0 1-8.284 0m8.284 0a5.858 5.858 0 0 1 0 8.284m0-8.284a5.858 5.858 0 0 0-8.284 0M11 19.784A5.858 5.858 0 0 1 2.716 11.5" stroke="#989898" stroke-width="1.5" stroke-miterlimit="10" stroke-linecap="round" stroke-linejoin="round"/>
</svg>
