<svg width="809" height="561" viewBox="0 0 809 561" fill="none" xmlns="http://www.w3.org/2000/svg">
    <rect width="809" height="560" rx="20" fill="url(#drhawqtoha)"/>
    <rect width="809" height="560" rx="20" fill="#000" fill-opacity=".8"/>
    <g clip-path="url(#0e9bjuvzyb)" fill="#4FE5FF">
        <path d="M495.989 177.612 467 225.878l28.989-13.22v-35.046z" fill-opacity=".1"/>
        <path d="M495.989 212.658 467 225.878l28.989 17.198v-30.418zm28.995 13.22-28.995-48.266v35.046l28.995 13.22z" fill-opacity=".12"/>
        <path d="m495.989 243.076 28.995-17.198-28.995-13.22v30.418z" fill-opacity=".08"/>
        <path d="m467 231.397 28.989 40.991v-23.805L467 231.397z" fill-opacity=".1"/>
        <path d="M495.989 248.583v23.805L525 231.397l-29.011 17.186z" fill-opacity=".12"/>
    </g>
    <path d="m375.806 519.285-6.642-1.97a69.99 69.99 0 0 0-22.833-2.826l-29.702 1.246a69.968 69.968 0 0 0-11.66 1.476l-38.851 8.282-42.579 10.257-44.665 10.838a69.988 69.988 0 0 1-26.359 1.277l-31.19-4.434a69.92 69.92 0 0 1-11.639-2.684l-7.019-2.264a69.992 69.992 0 0 0-45.79.972l-17.075 6.32L.19 560.436a.29.29 0 0 0 .101.564h808.117a.592.592 0 0 0 .592-.592l-1.015-34.898v-8.642a.31.31 0 0 0-.309-.31.366.366 0 0 1-.057-.005l-5.892-1.087a65.796 65.796 0 0 0-16.011-.966l-16.581 1.027a69.944 69.944 0 0 0-14.429 2.426l-30.905 8.596a70 70 0 0 1-32.598 1.178l-18.845-3.801a69.992 69.992 0 0 0-17.433-1.29l-55.58 2.857h-51.467l-58.604 7.72H455.41l-54.528-7.72-25.076-6.208z" fill="url(#etnc21o1nc)"/>
    <path d="M449.292 110V80.371l2.188 6.509L420 42h10.081l26.915 38.469h-5.706L478.299 42H488l-31.385 44.88 2.093-6.509V110h-9.416zm-20.067-11.366v-5.537h49.55v5.537h-49.55zm0-13.405V79.69h49.55v5.538h-49.55zM579 135.483v-5.475h52.319v5.475H579zm0-13.491v-5.475h52.319v5.475H579zM624.986 161c-5.131 0-9.905-.847-14.322-2.542-4.351-1.76-8.151-4.204-11.399-7.332-3.247-3.194-5.781-6.909-7.599-11.146-1.819-4.236-2.728-8.896-2.728-13.98s.909-9.744 2.728-13.98c1.818-4.237 4.352-7.919 7.599-11.048 3.248-3.194 7.048-5.638 11.399-7.332 4.417-1.76 9.191-2.64 14.322-2.64 5.327 0 10.231.912 14.712 2.737 4.482 1.76 8.249 4.4 11.302 7.919l-6.235 6.16c-2.664-2.738-5.619-4.758-8.866-6.062-3.183-1.369-6.658-2.053-10.425-2.053-3.833 0-7.373.652-10.62 1.955-3.248 1.304-6.106 3.129-8.574 5.475-2.403 2.347-4.254 5.149-5.553 8.408-1.299 3.194-1.949 6.681-1.949 10.461 0 3.78.65 7.3 1.949 10.559 1.299 3.193 3.15 5.963 5.553 8.31 2.468 2.346 5.326 4.171 8.574 5.475 3.247 1.303 6.787 1.955 10.62 1.955 3.767 0 7.242-.652 10.425-1.955 3.247-1.369 6.202-3.455 8.866-6.257l6.235 6.159c-3.053 3.519-6.82 6.192-11.302 8.017-4.481 1.825-9.385 2.737-14.712 2.737zM749.291 69.231l2.822-10.81 4.796 1.253-2.822 10.81-4.796-1.253zM739.25 66.61l2.822-10.81 4.796 1.252-2.822 10.81-4.796-1.252zm-4.314 57.606 2.822-10.809 4.796 1.252-2.822 10.809-4.796-1.252zm-10.042-2.621 2.823-10.81 4.796 1.252-2.823 10.81-4.796-1.252zm-5.05-8.863 13.433-51.453 12.29 3.208c4.197 1.096 7.587 2.417 10.171 3.964 2.635 1.56 4.407 3.46 5.317 5.699.959 2.252 1.031 4.939.216 8.062-.527 2.018-1.347 3.728-2.46 5.13-1.051 1.368-2.389 2.405-4.014 3.11-1.562.67-3.367.942-5.416.818l-.094.36c1.91.858 3.521 1.946 4.831 3.263 1.36 1.33 2.271 2.953 2.731 4.87.51 1.929.414 4.239-.288 6.929-.816 3.123-2.211 5.607-4.187 7.451-1.913 1.81-4.294 2.959-7.143 3.447-2.837.44-6.028.196-9.575-.73l-15.812-4.128zm21.352-25.985c4.097 1.07 7.077 1.103 8.939.101 1.925-1.037 3.251-2.949 3.979-5.735.74-2.835.317-5.1-1.267-6.797-1.523-1.732-4.332-3.132-8.429-4.202l-5.845-1.526-4.271 16.359 6.894 1.8zm-8.305 3.605-4.873 18.664 7.794 2.035c4.146 1.083 7.276.95 9.389-.397 2.112-1.347 3.545-3.462 4.297-6.345.477-1.825.516-3.508.118-5.05-.348-1.527-1.277-2.873-2.788-4.037-1.498-1.212-3.72-2.203-6.668-2.973l-7.269-1.897zM738.616 352V213h9.38v139h-9.38zm3.664-16.562c-7.817 0-15.292-1.183-22.425-3.549-7.133-2.464-12.751-5.619-16.855-9.463l5.423-11.535c3.908 3.451 8.892 6.31 14.95 8.577 6.058 2.267 12.36 3.401 18.907 3.401 5.961 0 10.797-.69 14.51-2.07 3.713-1.38 6.449-3.253 8.208-5.619 1.759-2.465 2.638-5.225 2.638-8.281 0-3.549-1.172-6.408-3.517-8.577-2.248-2.168-5.228-3.894-8.941-5.175-3.615-1.38-7.621-2.563-12.018-3.549a241.416 241.416 0 0 1-13.338-3.401c-4.397-1.38-8.452-3.106-12.165-5.176-3.616-2.07-6.547-4.83-8.794-8.281-2.248-3.549-3.371-8.083-3.371-13.604 0-5.323 1.368-10.203 4.104-14.639 2.833-4.535 7.133-8.133 12.898-10.795 5.862-2.76 13.288-4.14 22.278-4.14 5.96 0 11.872.788 17.734 2.366 5.863 1.577 10.944 3.844 15.244 6.802l-4.837 11.83c-4.397-2.958-9.039-5.077-13.924-6.359-4.886-1.38-9.625-2.07-14.217-2.07-5.765 0-10.504.739-14.217 2.218-3.713 1.479-6.449 3.45-8.208 5.915-1.661 2.464-2.492 5.225-2.492 8.281 0 3.647 1.124 6.555 3.371 8.724 2.345 2.169 5.326 3.894 8.941 5.176 3.713 1.281 7.768 2.464 12.165 3.549 4.397.985 8.794 2.119 13.191 3.401 4.495 1.281 8.55 2.957 12.165 5.027 3.713 2.071 6.694 4.831 8.941 8.281 2.247 3.451 3.371 7.887 3.371 13.309 0 5.225-1.417 10.104-4.25 14.639-2.834 4.436-7.231 8.034-13.192 10.795-5.862 2.661-13.288 3.992-22.278 3.992z" fill="#4FE5FF" fill-opacity=".1"/>
    <g clip-path="url(#hwl4860wnd)">
        <path d="m540.536 442.074-14.857 15.837a3.46 3.46 0 0 1-2.524 1.089h-70.43c-.336 0-.665-.098-.946-.281a1.704 1.704 0 0 1-.315-2.603l14.868-15.836a3.444 3.444 0 0 1 1.145-.804 3.438 3.438 0 0 1 1.372-.285h70.426a1.718 1.718 0 0 1 1.582 1.03 1.705 1.705 0 0 1-.321 1.853zm-14.857-31.889a3.451 3.451 0 0 0-2.524-1.09h-70.43c-.336 0-.665.098-.946.281a1.705 1.705 0 0 0-.315 2.603l14.868 15.836a3.456 3.456 0 0 0 2.517 1.09h70.426c.336 0 .665-.098.946-.281a1.705 1.705 0 0 0 .315-2.603l-14.857-15.836zm-72.954-11.376h70.43a3.459 3.459 0 0 0 2.524-1.089l14.857-15.836a1.706 1.706 0 0 0-.315-2.603 1.735 1.735 0 0 0-.946-.281h-70.426a3.447 3.447 0 0 0-2.517 1.09l-14.864 15.836a1.71 1.71 0 0 0-.322 1.851 1.724 1.724 0 0 0 1.579 1.032z" fill="#4FE5FF" fill-opacity=".1"/>
    </g>
    <path fill-rule="evenodd" clip-rule="evenodd" d="M638 330.5c0 16.293-13.207 29.5-29.5 29.5-16.292 0-29.5-13.207-29.5-29.5 0-16.292 13.208-29.5 29.5-29.5 16.293 0 29.5 13.208 29.5 29.5zm-37.859 11.74h-5.726c-1.203 0-1.797 0-2.159-.232a1.454 1.454 0 0 1-.66-1.138c-.021-.428.276-.95.87-1.993l14.136-24.917c.602-1.058.906-1.587 1.29-1.783a1.46 1.46 0 0 1 1.319 0c.384.196.688.725 1.29 1.783l2.906 5.073.015.026c.649 1.135.979 1.711 1.123 2.315a4.311 4.311 0 0 1 0 2.014c-.145.609-.471 1.189-1.131 2.341l-7.425 13.126-.019.034c-.654 1.144-.986 1.724-1.445 2.162a4.33 4.33 0 0 1-1.761 1.022c-.602.167-1.275.167-2.623.167zm14.457 0h8.204c1.21 0 1.819 0 2.181-.239a1.45 1.45 0 0 0 .66-1.145c.021-.414-.27-.916-.839-1.899a4.603 4.603 0 0 1-.06-.102l-4.109-7.029-.047-.079c-.577-.977-.869-1.47-1.243-1.661a1.445 1.445 0 0 0-1.312 0c-.376.196-.681.711-1.282 1.747l-4.095 7.03-.014.024c-.599 1.034-.899 1.551-.877 1.976.029.464.268.891.659 1.145.355.232.964.232 2.174.232z" fill="#4FE5FF" fill-opacity=".1"/>
    <path d="M655.754 482.453v-45.168l2.927 3.216H645v-5.954h17.493v47.906h-6.739zM692.381 483c-3.721 0-7.056-.958-10.006-2.874-2.904-1.917-5.218-4.7-6.942-8.349-1.679-3.65-2.519-8.076-2.519-13.277 0-5.201.84-9.627 2.519-13.277 1.724-3.649 4.038-6.432 6.942-8.349 2.95-1.916 6.285-2.874 10.006-2.874 3.675 0 6.988.958 9.937 2.874 2.95 1.917 5.264 4.7 6.943 8.349 1.679 3.65 2.518 8.076 2.518 13.277 0 5.201-.839 9.627-2.518 13.277-1.679 3.649-3.993 6.432-6.943 8.349-2.949 1.916-6.262 2.874-9.937 2.874zm0-6.091c2.496 0 4.674-.684 6.534-2.053 1.906-1.369 3.381-3.422 4.424-6.159 1.089-2.738 1.634-6.136 1.634-10.197 0-4.061-.545-7.459-1.634-10.197-1.043-2.737-2.518-4.79-4.424-6.159-1.86-1.369-4.038-2.053-6.534-2.053-2.496 0-4.697.684-6.602 2.053-1.906 1.369-3.404 3.422-4.493 6.159-1.043 2.738-1.565 6.136-1.565 10.197 0 4.061.522 7.459 1.565 10.197 1.089 2.737 2.587 4.79 4.493 6.159 1.905 1.369 4.106 2.053 6.602 2.053zM715.334 482.453l15.519-20.257-.068 3.353-14.77-19.367h7.283l11.298 14.919h-2.79l11.299-14.919h7.146l-14.974 19.504.068-3.49L751 482.453h-7.419l-11.911-15.878 2.654.411-11.707 15.467h-7.283z" fill="#4FE5FF" fill-opacity=".1"/>
    <defs>
        <linearGradient id="drhawqtoha" x1="0" y1="280" x2="779.037" y2="280" gradientUnits="userSpaceOnUse">
            <stop offset=".214" stop-color="#fff"/>
            <stop offset="1" stop-color="#4FE5FF"/>
        </linearGradient>
        <linearGradient id="etnc21o1nc" x1="398.75" y1="503.609" x2="398.75" y2="559.401" gradientUnits="userSpaceOnUse">
            <stop stop-color="#FEFEFE" stop-opacity=".4"/>
            <stop offset=".078" stop-color="#4FE5FF"/>
            <stop offset="1" stop-color="#1D5C67" stop-opacity="0"/>
        </linearGradient>
        <clipPath id="0e9bjuvzyb">
            <path fill="#fff" transform="translate(467 151)" d="M0 0h58v148H0z"/>
        </clipPath>
        <clipPath id="hwl4860wnd">
            <path fill="#fff" transform="translate(451 379)" d="M0 0h90v80H0z"/>
        </clipPath>
    </defs>
</svg>
