<svg width="22" height="17" viewBox="0 0 22 17" fill="none" xmlns="http://www.w3.org/2000/svg">
    <path d="M1.063 4.781a.531.531 0 0 1-1.063 0V2.656A2.656 2.656 0 0 1 2.656 0h2.125a.531.531 0 0 1 0 1.063H2.656c-.88 0-1.594.713-1.594 1.593v2.125zm15.406-3.718a.531.531 0 0 1 0-1.063h2.125a2.656 2.656 0 0 1 2.656 2.656v2.125a.531.531 0 0 1-1.063 0V2.656c0-.88-.713-1.594-1.593-1.594h-2.125zm3.718 11.156a.531.531 0 1 1 1.063 0v2.125A2.656 2.656 0 0 1 18.594 17h-2.125a.531.531 0 1 1 0-1.063h2.125c.88 0 1.593-.713 1.593-1.593v-2.125zM4.781 15.938a.531.531 0 1 1 0 1.062H2.656A2.656 2.656 0 0 1 0 14.344v-2.125a.531.531 0 1 1 1.063 0v2.125c0 .88.713 1.594 1.593 1.594h2.125z" fill="#fff"/>
</svg>
