<svg width="18" height="18" viewBox="0 0 18 18" fill="none" xmlns="http://www.w3.org/2000/svg">
    <path d="M16.125 10.883v.36a2.257 2.257 0 0 1-2.25 2.25h-1.5M.99 3.325a2.25 2.25 0 0 1 1.635-.707h4.138" stroke="#fff" stroke-width=".625" stroke-linecap="round" stroke-linejoin="round"/>
    <path d="m.99 3.325 9.205 2.497a3.042 3.042 0 0 1 2.18 2.796v7.207a1.704 1.704 0 0 1-2.19 1.734l-7.618-1.965a2.986 2.986 0 0 1-2.192-2.769V4.868c0-.574.22-1.126.615-1.543z" stroke="#fff" stroke-width=".625" stroke-linecap="round" stroke-linejoin="round"/>
    <path d="M9 13.868a1.5 1.5 0 1 0 0-3 1.5 1.5 0 0 0 0 3zM8.107 3.759a4.875 4.875 0 1 1 5.782 6.225" stroke="#fff" stroke-width=".625" stroke-linecap="round" stroke-linejoin="round"/>
    <path d="M12.758 7.973V4.98a.427.427 0 0 0-.427-.427h-.855M12.114 2.416a.214.214 0 1 1 0 .427.214.214 0 0 1 0-.427zM12.321 7.972h1.692" stroke="#fff" stroke-width=".712" stroke-linecap="round" stroke-linejoin="round"/>
</svg>
