<svg width="16" height="16" viewBox="0 0 16 16" fill="none" xmlns="http://www.w3.org/2000/svg">
    <path d="M2.675 5.431 1.51 6.478v3.043l1.165 1.047h10.594l1.165-1.047V6.478L13.27 5.431H2.675zm1.728 3.001H2.618a.433.433 0 0 1 0-.865h1.785a.433.433 0 1 1 0 .865zm3.569 1.352a1.785 1.785 0 1 1 0-3.569 1.785 1.785 0 0 1 0 3.57zM13.758 8a.433.433 0 0 1-.432.432H11.54a.433.433 0 1 1 0-.865h1.785c.239 0 .432.194.432.433z" fill="#D1D1D1"/>
    <path d="M15.403 3.854H2.88A2.113 2.113 0 0 1 4.9 2.35h3.347l-.34.289a.54.54 0 0 0 .698.825l1.467-1.242a.541.541 0 0 0 .004-.822L8.61.132a.54.54 0 1 0-.707.818l.367.317H4.9a3.197 3.197 0 0 0-3.13 2.587H.54a.54.54 0 0 0-.541.54v7.211c0 .299.242.54.54.54h12.523a2.113 2.113 0 0 1-2.019 1.506H7.696l.342-.289a.54.54 0 0 0-.7-.825l-1.466 1.242a.541.541 0 0 0-.004.822l1.467 1.267a.539.539 0 0 0 .762-.055.54.54 0 0 0-.055-.763l-.367-.317h3.37a3.197 3.197 0 0 0 3.13-2.587h1.228a.54.54 0 0 0 .54-.54V4.394a.54.54 0 0 0-.54-.54zm-.104 5.86c0 .123-.052.24-.143.322l-1.432 1.287a.433.433 0 0 1-.289.11H2.51a.433.433 0 0 1-.29-.11L.789 10.036a.433.433 0 0 1-.143-.322V6.286c0-.123.052-.24.143-.322L2.22 4.677a.433.433 0 0 1 .289-.11h10.926c.107 0 .21.039.29.11l1.43 1.287a.433.433 0 0 1 .144.322v3.428z" fill="#D1D1D1"/>
</svg>
