<svg width="16" height="16" viewBox="0 0 16 16" fill="none" xmlns="http://www.w3.org/2000/svg">
    <path fill-rule="evenodd" clip-rule="evenodd" d="M15.183 5.333c.1.437.15.884.15 1.333h-6v-6a6 6 0 0 1 5.85 4.667zm-1.378 0a4.648 4.648 0 0 0-1.172-1.966 4.666 4.666 0 0 0-1.967-1.173v3.14h3.14z" fill="#D1D1D1"/>
    <path fill-rule="evenodd" clip-rule="evenodd" d="M.666 9.333a6 6 0 0 1 7.333-5.85V8h4.517A6 6 0 1 1 .666 9.333zm10.536 0H6.666V4.797a4.536 4.536 0 1 0 4.536 4.536z" fill="#D1D1D1"/>
</svg>
